<svg xmlns="http://www.w3.org/2000/svg" xmlns:xlink="http://www.w3.org/1999/xlink" width="199.318" height="45.228" viewBox="0 0 199.318 45.228"><defs><style>.a{fill:#fff;}.b{fill:#ffc220;}.c{filter:url(#c);}.d{filter:url(#a);}</style><filter id="a" x="0" y="10.84" width="144.214" height="26.567" filterUnits="userSpaceOnUse"><feOffset dx="1" dy="1" input="SourceAlpha"/><feGaussianBlur result="b"/><feFlood flood-opacity="0.161"/><feComposite operator="in" in2="b"/><feComposite in="SourceGraphic"/></filter><filter id="c" x="154.09" y="0" width="45.228" height="45.228" filterUnits="userSpaceOnUse"><feOffset dx="1" dy="1" input="SourceAlpha"/><feGaussianBlur result="d"/><feFlood flood-opacity="0.161"/><feComposite operator="in" in2="d"/><feComposite in="SourceGraphic"/></filter></defs><g transform="translate(-142.899 -48)"><g class="d" transform="matrix(1, 0, 0, 1, 142.9, 48)"><path class="a" d="M3.083-12.432a18.137,18.137,0,0,1,1.646-5.846A11.458,11.458,0,0,1,7.8-22.256a13.133,13.133,0,0,1,3.922-2.183,13.577,13.577,0,0,1,4.46-.721,18.257,18.257,0,0,1,7.5,1.517l-1.48,5.032a12.845,12.845,0,0,0-5.689-1.517,6.182,6.182,0,0,0-4.5,1.794q-1.831,1.794-2.312,5.791Q8.744-4.588,14-4.588a16.319,16.319,0,0,0,1.85-.11l.95-7.882h6.038L21.429-.92A26.6,26.6,0,0,1,13.11.37Q1.529.37,3.083-12.432ZM31.6-24.439a13.349,13.349,0,0,1,4.551-.721,12.4,12.4,0,0,1,4.4.7,6.206,6.206,0,0,1,2.793,1.924,9.453,9.453,0,0,1,1.48,2.849,10.436,10.436,0,0,1,.5,3.5q-.037,1.869-.222,3.83A24.482,24.482,0,0,1,44.067-7.6a16.018,16.018,0,0,1-2.016,4,8.622,8.622,0,0,1-3.645,2.96A13.283,13.283,0,0,1,32.893.407a12.09,12.09,0,0,1-4.366-.7A6.353,6.353,0,0,1,25.752-2.22a9.218,9.218,0,0,1-1.5-2.849,10.066,10.066,0,0,1-.481-3.478q.056-1.85.24-3.811a28.559,28.559,0,0,1,.722-3.848A16.538,16.538,0,0,1,26.1-19.666a10.278,10.278,0,0,1,2.2-2.886A9.869,9.869,0,0,1,31.6-24.439Zm2,19.629a3.978,3.978,0,0,0,2.886-1.073,5.963,5.963,0,0,0,1.572-2.571,23.276,23.276,0,0,0,.759-3.9,35.418,35.418,0,0,0,.2-3.922,4.328,4.328,0,0,0-.888-2.793,3.23,3.23,0,0,0-2.646-1.055,4.3,4.3,0,0,0-2.276.573,4.062,4.062,0,0,0-1.517,1.739,11.464,11.464,0,0,0-.87,2.4,28.172,28.172,0,0,0-.518,3.053,34,34,0,0,0-.2,3.83,4.088,4.088,0,0,0,.888,2.7A3.242,3.242,0,0,0,33.6-4.81Zm26.3-17.913h5.37L67.909-9.941l2.946-14.775h5.578L71.225,0H64.27L61.443-14.267,55.291,0H48.433l.481-24.716h5.92l-.666,14.8Zm25.393-1.716a13.349,13.349,0,0,1,4.551-.721,12.4,12.4,0,0,1,4.4.7,6.206,6.206,0,0,1,2.794,1.924,9.453,9.453,0,0,1,1.48,2.849,10.436,10.436,0,0,1,.5,3.5q-.037,1.869-.222,3.83A24.482,24.482,0,0,1,97.754-7.6a16.017,16.017,0,0,1-2.016,4,8.622,8.622,0,0,1-3.645,2.96A13.283,13.283,0,0,1,86.58.407a12.09,12.09,0,0,1-4.366-.7A6.353,6.353,0,0,1,79.439-2.22a9.218,9.218,0,0,1-1.5-2.849,10.066,10.066,0,0,1-.481-3.478q.055-1.85.241-3.811a28.558,28.558,0,0,1,.721-3.848,16.539,16.539,0,0,1,1.369-3.459,10.278,10.278,0,0,1,2.2-2.886A9.869,9.869,0,0,1,85.285-24.439Zm2,19.629a3.978,3.978,0,0,0,2.886-1.073,5.963,5.963,0,0,0,1.572-2.571,23.275,23.275,0,0,0,.758-3.9,35.416,35.416,0,0,0,.2-3.922,4.328,4.328,0,0,0-.888-2.793,3.23,3.23,0,0,0-2.646-1.055,4.3,4.3,0,0,0-2.275.573,4.062,4.062,0,0,0-1.517,1.739,11.464,11.464,0,0,0-.869,2.4,28.171,28.171,0,0,0-.518,3.053,34,34,0,0,0-.2,3.83,4.088,4.088,0,0,0,.888,2.7A3.242,3.242,0,0,0,87.283-4.81ZM100.6,0l2.959-24.161a39.328,39.328,0,0,1,8.141-.814,17.194,17.194,0,0,1,3.607.333,8.9,8.9,0,0,1,2.9,1.2,4.794,4.794,0,0,1,1.961,2.608,9.557,9.557,0,0,1,.259,4.292q-.666,5.735-5.328,7.622L119.77,0h-6.956L109.04-8.23a5.664,5.664,0,0,1-1-.147L107.014,0Zm8.892-20.247-.922,7.533q1.551.1,1.588.1a4.313,4.313,0,0,0,2.7-.8,4.354,4.354,0,0,0,1.332-2.979q.481-3.922-3.071-3.922A13.606,13.606,0,0,0,109.495-20.247Zm22.3-4.469-1.229,9.806h1.562l6.586-9.805h7.4l-8.634,12.1L144.633,0h-7.622l-5.4-10.138-1.644,0L128.7,0h-6.411l3.1-24.716Z" transform="translate(-2.9 36)"/></g><g class="c" transform="matrix(1, 0, 0, 1, 142.9, 48)"><path class="b" d="M22.114,44.228A22.114,22.114,0,1,1,44.228,22.114,22.131,22.131,0,0,1,22.114,44.228Zm0-40.517a18.4,18.4,0,1,0,18.4,18.4,18.447,18.447,0,0,0-18.4-18.4ZM32.959,24.255H16.978a1.285,1.285,0,0,1-1.286-1.273V21.117a1.281,1.281,0,0,1,1.286-1.284H33.1a1.281,1.281,0,0,1,1.284,1.284v1.854a1.517,1.517,0,0,1-1.425,1.284ZM28.82,17.122H12.7a1.279,1.279,0,0,1-1.286-1.273V13.987A1.259,1.259,0,0,1,12.7,12.843H28.818a1.23,1.23,0,0,1,1.143,1.141v1.854a1.259,1.259,0,0,1-1.141,1.284ZM12.7,27.106H28.82A1.278,1.278,0,0,1,30.1,28.391v1.854a1.281,1.281,0,0,1-1.273,1.284H12.7A1.513,1.513,0,0,1,11.415,30.1V28.251A1.258,1.258,0,0,1,12.7,27.106Z" transform="translate(154.09)"/></g></g></svg>